# xmcd
#
# Track frame offsets:
#	150
#	9765
#	20378
#	32048
#	44281
#	55156
#	64561
#	74821
#	85074
#	95679
#	106344
#	117969
#
# Disc length: 1695 seconds
#
# Revision: 1
# Processed by: cddbd v1.5.2PL0 Copyright (c) Steve Scherf et al.
# Submitted via: audiograbber 1.83.01
#
DISCID=95069d0c
DTITLE=Carl Smith - There Stands The Glass
DYEAR=1964
DGENRE=Country
TTITLE0=Slowly
TTITLE1=Wondering
TTITLE2=Love, Love, Love
TTITLE3=Back Street Affair
TTITLE4=So Used To Lovin' You
TTITLE5=I'm Tired
TTITLE6=There Stands The Glass
TTITLE7=More and More
TTITLE8=How Do You Talk To A Baby
TTITLE9=Yes I Know Why
TTITLE10=That Heart Belongs To Me
TTITLE11=I Don't Care
EXTD=
EXTT0=
EXTT1=
EXTT2=
EXTT3=
EXTT4=
EXTT5=
EXTT6=
EXTT7=
EXTT8=
EXTT9=
EXTT10=
EXTT11=
PLAYORDER=
